<?xml version="1.0" encoding="utf-8"?>
<!-- Generator: Adobe Illustrator 22.0.1, SVG Export Plug-In . SVG Version: 6.00 Build 0)  -->
<svg version="1.1" id="Layer_1" xmlns="http://www.w3.org/2000/svg" xmlns:xlink="http://www.w3.org/1999/xlink" x="0px" y="0px"
	 viewBox="0 0 500 156.3" style="enable-background:new 0 0 500 156.3;" xml:space="preserve">
<style type="text/css">
	.st0{clip-path:url(#SVGID_2_);fill:#938784;}
	.st1{clip-path:url(#SVGID_2_);fill:#6D1D39;}
	.st2{clip-path:url(#SVGID_2_);fill:#679A41;}
	.st3{fill:#938784;}
	.st4{clip-path:url(#SVGID_4_);fill:#938784;}
	.st5{clip-path:url(#SVGID_6_);fill:#938784;}
</style>
<g>
	<g>
		<defs>
			<rect id="SVGID_1_" x="36" y="35" width="428" height="95.7"/>
		</defs>
		<clipPath id="SVGID_2_">
			<use xlink:href="#SVGID_1_"  style="overflow:visible;"/>
		</clipPath>
		<path class="st0" d="M99.1,84.4c7.7,0,9.8-6.9,9.8-13.4c0-5.9-3.2-11.5-9.8-11.5c-6.5,0-9.7,5.7-9.7,11.5
			C89.4,77.4,91.4,84.4,99.1,84.4 M99.1,51.7c11.5,0,20.3,7.7,20.3,20.5c0,11.1-7.4,20-20.3,20c-12.8,0-20.2-8.9-20.2-20
			C78.9,59.4,87.7,51.7,99.1,51.7"/>
		<path class="st0" d="M149.6,60.7c-3.1-1.1-5.3-1.6-9-1.6c-2.7,0-5.9,1-5.9,4.3c0,6.2,17.5,2.2,17.5,16.2c0,9-8,12.6-16.2,12.6
			c-3.8,0-7.7-0.7-11.4-1.6l0.6-8.3c3.2,1.6,6.5,2.6,9.9,2.6c2.6,0,6.6-1,6.6-4.7c0-7.6-17.5-2.4-17.5-16.4c0-8.3,7.3-12,15.2-12
			c4.7,0,7.8,0.7,11,1.4L149.6,60.7z"/>
		<path class="st0" d="M165.1,60h-7.4v-7.4h7.4v-7.7l10.1-3.2v11h8.9V60h-8.9v18c0,3.3,0.9,6.4,4.7,6.4c1.8,0,3.5-0.4,4.6-1.1l0.3,8
			c-2.1,0.6-4.4,0.9-7.4,0.9c-7.9,0-12.2-4.9-12.2-12.5V60z"/>
		<path class="st0" d="M239.5,52.6h9.5v5.3h0.1c3.2-4.4,7.4-6.2,12.7-6.2c9.2,0,13.1,6.5,13.1,15.2v24.4H265V70.6
			c0-4.7-0.1-11.1-6.5-11.1c-7.3,0-8.9,7.9-8.9,12.8v18.9h-10.1V52.6z"/>
		<path class="st0" d="M55,84.4c6.6,0,8.5-7.2,8.5-12.5c0-5.2-1.8-12.3-8.3-12.3c-6.5,0-9,6.9-9,12.3C46.1,77.3,48.3,84.4,55,84.4
			 M36,35h10.1v22.6h0.1c2.8-3.7,6.3-5.9,11.6-5.9c11.9,0,16.2,9.5,16.2,20.1c0,10.6-4.4,20.3-16.2,20.3c-4.3,0-8.9-1.5-11.9-5.6
			h-0.1v4.7H36V35z"/>
		<path class="st1" d="M352.6,68.1c-0.3-4.9-2.6-9.1-8.2-9.1c-5.6,0-8.5,3.9-8.9,9.1H352.6z M359.3,89.1c-3.7,2-7.9,3.1-13.3,3.1
			c-12.8,0-20.2-7.4-20.2-20c0-11.2,5.9-20.4,17.9-20.4c14.3,0,18.4,9.8,18.4,23.3h-26.7c0.5,6.2,4.8,9.8,11,9.8
			c4.9,0,9.1-1.8,12.8-3.9V89.1z"/>
		<path class="st1" d="M382.1,84.8c3.1,0,5.5-1.3,7.1-3.5c1.6-2.2,2.1-5,2.1-8h-4.3c-4.5,0-11.2,0.7-11.2,6.7
			C375.7,83.4,378.5,84.8,382.1,84.8 M370.3,54.6c3.9-1.8,9.2-2.9,13.4-2.9c11.8,0,16.7,4.9,16.7,16.3v5c0,3.9,0.1,6.8,0.2,9.7
			c0.1,2.9,0.2,5.6,0.4,8.6h-8.9c-0.4-2-0.4-4.6-0.5-5.8h-0.1c-2.3,4.3-7.4,6.7-11.9,6.7c-6.8,0-13.5-4.1-13.5-11.5
			c0-5.8,2.8-9.2,6.6-11c3.8-1.9,8.8-2.3,13-2.3h5.6c0-6.2-2.8-8.3-8.7-8.3c-4.3,0-8.6,1.6-11.9,4.2L370.3,54.6z"/>
		<path class="st1" d="M408.2,52.6h8.9v8.8h0.2c0.4-3.6,4.6-9.7,10.6-9.7c1,0,2,0,3.1,0.3v10.1c-0.9-0.5-2.7-0.8-4.5-0.8
			c-8.2,0-8.2,10.2-8.2,15.8v14.2h-10.1V52.6z"/>
		<path class="st1" d="M444.3,60h-7.4v-7.4h7.4v-7.7l10.1-3.2v11h8.9V60h-8.9v18c0,3.3,0.9,6.4,4.7,6.4c1.8,0,3.5-0.4,4.6-1.1l0.3,8
			c-2.1,0.6-4.4,0.9-7.4,0.9c-7.9,0-12.2-4.9-12.2-12.5V60z"/>
		<path class="st1" d="M284.9,35.4h10.1v22.9h0.2c2.5-3.7,6.9-6.2,12.2-6.2c9.2,0,13.1,6.5,13.1,15.2v24.4h-10.1V71.1
			c0-4.7-0.1-11.1-6.5-11.1c-7.3,0-8.9,7.9-8.9,12.8v18.9h-10.1V35.4z"/>
		<path class="st1" d="M210.3,91.4C196.7,78.3,195,71,195,71c-3.6-15.8,14.1-11.5,14.1-11.5c0.6,0.1,0.8,0,1.1-0.8
			c0.5-1.2-0.2-1.5-0.2-1.5c-16.1-10.9-20.7,4.2-20.7,4.2c-3.4,15.6,16,28.4,20.1,31c0.5,0.3,0.7,0.3,0.9,0
			C210.9,91.9,210.3,91.4,210.3,91.4"/>
		<path class="st1" d="M212.4,91.3c13.6-13.2,15.3-20.4,15.3-20.4c3.6-15.8-14.1-11.5-14.1-11.5c-0.6,0.1-0.8,0-1.1-0.8
			c-0.5-1.2,0.2-1.5,0.2-1.5c16.1-10.9,20.7,4.2,20.7,4.2c3.4,15.6-16,28.4-20.1,31c-0.5,0.3-0.7,0.3-0.9,0
			C211.8,91.8,212.4,91.3,212.4,91.3"/>
		<path class="st2" d="M222.4,38.7c0,0-11,4.2-10.7,14.6l-0.5,0.6c0,0-1.2-9.5-6.3-13.1l-2.8,1.8c0,0,5.2-0.9,8.2,13.8
			c0,0,0.7,0.6,2-0.1c1.1-0.6,7.5-6.4,9-8.3c0,0,2.3-2.2,1.4-7L222.4,38.7z"/>
		<path class="st0" d="M292.5,121.2c2.7,0,3.6-2.8,3.6-5c0-2.2-1-5-3.6-5c-2.6,0-3.4,2.9-3.4,5C289.1,118.3,289.9,121.2,292.5,121.2
			 M296.2,122.2L296.2,122.2c-1.3,1.5-2.9,2.1-4.8,2.1c-4.8,0-6.5-3.9-6.5-8.2c0-4.3,1.8-8.1,6.5-8.1c2,0,3.4,0.7,4.7,2.2h0.1v-8.9
			h4V124h-3.9V122.2z"/>
	</g>
	<path class="st3" d="M305.2,108.4h4.1V124h-4.1V108.4z M305.2,101.7h4.1v3.9h-4.1V101.7z"/>
	<g>
		<defs>
			<rect id="SVGID_3_" x="36" y="35" width="428" height="95.7"/>
		</defs>
		<clipPath id="SVGID_4_">
			<use xlink:href="#SVGID_3_"  style="overflow:visible;"/>
		</clipPath>
		<path class="st4" d="M319.7,121.4c1.2,0,2.2-0.5,2.8-1.4c0.7-0.9,0.8-2,0.8-3.2h-1.7c-1.8,0-4.5,0.3-4.5,2.7
			C317.1,120.8,318.2,121.4,319.7,121.4 M314.9,109.2c1.6-0.7,3.7-1.2,5.4-1.2c4.7,0,6.7,2,6.7,6.6v2c0,1.6,0,2.7,0.1,3.9
			c0,1.2,0.1,2.3,0.2,3.5h-3.6c-0.2-0.8-0.2-1.8-0.2-2.3h-0.1c-0.9,1.7-3,2.7-4.8,2.7c-2.8,0-5.4-1.7-5.4-4.6c0-2.3,1.1-3.7,2.7-4.4
			c1.6-0.8,3.5-0.9,5.2-0.9h2.2c0-2.5-1.1-3.4-3.5-3.4c-1.7,0-3.4,0.7-4.8,1.7L314.9,109.2z"/>
		<path class="st4" d="M342.1,116c0-2.7-1-4.8-3.4-4.8c-2.8,0-3.6,2.5-3.6,4.9c0,2.1,1.1,4.7,3.5,4.7
			C341,120.8,342.1,118.6,342.1,116 M346.1,108.4v14.1c0,4.2-1.7,8.2-8.2,8.2c-1.6,0-3.4-0.2-5.4-1.1l0.3-3.4
			c1.2,0.7,3.3,1.4,4.5,1.4c4.5,0,4.7-3.4,4.7-6.1H342c-0.8,1.3-2.6,2.5-4.8,2.5c-4.6,0-6.3-3.7-6.3-7.9c0-3.8,1.9-8.1,6.6-8.1
			c2.1,0,3.7,0.7,4.8,2.5h0.1v-2.1H346.1z"/>
		<path class="st4" d="M351,108.4h3.8v2.1h0.1c1.3-1.8,3-2.5,5.1-2.5c3.7,0,5.3,2.6,5.3,6.1v9.8h-4.1v-8.3c0-1.9,0-4.5-2.6-4.5
			c-2.9,0-3.6,3.2-3.6,5.2v7.6H351V108.4z"/>
		<path class="st4" d="M377.4,121.2c3.1,0,3.9-2.8,3.9-5.4c0-2.4-1.3-4.6-3.9-4.6c-2.6,0-3.9,2.3-3.9,4.6
			C373.5,118.4,374.3,121.2,377.4,121.2 M377.4,108c4.6,0,8.2,3.1,8.2,8.3c0,4.5-3,8-8.2,8c-5.1,0-8.1-3.6-8.1-8
			C369.3,111.1,372.8,108,377.4,108"/>
		<path class="st4" d="M398.8,111.7c-1.2-0.4-2.2-0.7-3.6-0.7c-1.1,0-2.4,0.4-2.4,1.7c0,2.5,7,0.9,7,6.5c0,3.6-3.2,5.1-6.5,5.1
			c-1.5,0-3.1-0.3-4.6-0.7l0.3-3.3c1.3,0.6,2.6,1,4,1c1,0,2.7-0.4,2.7-1.9c0-3.1-7.1-1-7.1-6.6c0-3.4,2.9-4.8,6.1-4.8
			c1.9,0,3.1,0.3,4.4,0.6L398.8,111.7z"/>
		<path class="st4" d="M405,111.4h-3v-3h3v-3.1l4-1.3v4.4h3.6v3h-3.6v7.3c0,1.3,0.4,2.6,1.9,2.6c0.7,0,1.4-0.2,1.8-0.4l0.1,3.2
			c-0.8,0.2-1.8,0.4-3,0.4c-3.2,0-4.9-2-4.9-5.1V111.4z"/>
	</g>
	<path class="st3" d="M416.3,108.4h4V124h-4V108.4z M416.3,101.7h4v3.9h-4V101.7z"/>
	<g>
		<defs>
			<rect id="SVGID_5_" x="36" y="35" width="428" height="95.7"/>
		</defs>
		<clipPath id="SVGID_6_">
			<use xlink:href="#SVGID_5_"  style="overflow:visible;"/>
		</clipPath>
		<path class="st5" d="M435.5,111.7c-0.7-0.3-1.5-0.6-2.8-0.6c-2.5,0-4.1,2-4.1,4.9c0,2.9,1.4,5.1,4.2,5.1c1.1,0,2.4-0.4,3.1-0.7
			l0.2,3.4c-1.2,0.4-2.4,0.5-4.1,0.5c-5.1,0-7.7-3.5-7.7-8.2c0-4.5,2.7-8.1,7.5-8.1c1.6,0,2.8,0.2,3.9,0.5L435.5,111.7z"/>
		<path class="st5" d="M448.8,111.7c-1.2-0.4-2.1-0.7-3.6-0.7c-1.1,0-2.4,0.4-2.4,1.7c0,2.5,7,0.9,7,6.5c0,3.6-3.2,5.1-6.5,5.1
			c-1.5,0-3.1-0.3-4.6-0.7l0.2-3.3c1.3,0.6,2.6,1,4,1c1,0,2.7-0.4,2.7-1.9c0-3.1-7-1-7-6.6c0-3.4,2.9-4.8,6.1-4.8
			c1.9,0,3.1,0.3,4.4,0.6L448.8,111.7z"/>
		<path class="st5" d="M458.1,108.8c0.7,0,1.1-0.1,1.1-0.9c0-0.7-0.7-0.7-1.3-0.7h-1v1.6H458.1z M455.6,106.1h2.5
			c1.7,0,2.6,0.5,2.6,1.9c0,1.2-0.7,1.7-1.7,1.7l1.7,2.8h-1.4l-1.6-2.8H457v2.8h-1.4V106.1z M458,114c2.3,0,4.2-1.9,4.2-4.6
			c0-2.7-1.9-4.6-4.2-4.6c-2.4,0-4.2,1.9-4.2,4.6C453.8,112.1,455.6,114,458,114 M458,103.5c3.2,0,5.9,2.6,5.9,5.9
			c0,3.2-2.6,5.9-5.9,5.9s-5.9-2.6-5.9-5.9C452.1,106.2,454.7,103.5,458,103.5"/>
	</g>
</g>
</svg>
