<?xml version="1.0" encoding="utf-8"?>
<!-- Generator: Adobe Illustrator 18.1.1, SVG Export Plug-In . SVG Version: 6.00 Build 0)  -->
<svg version="1.2" baseProfile="tiny" id="Calque_1"
	 xmlns="http://www.w3.org/2000/svg" xmlns:xlink="http://www.w3.org/1999/xlink" x="0px" y="0px" viewBox="0 0 300 165.2"
	 xml:space="preserve">
<g>
	<g>
		<path d="M77.9,97.4c-0.7-0.6-1.3-1.5-1.6-2.6c-0.4-1.1-0.6-2.2-0.6-3.5h0.9c0,1.4,0.2,2.6,0.6,3.4c0.4,0.9,0.9,1.6,1.5,2
			c0.6,0.5,1.3,0.8,2,1c0.7,0.2,1.4,0.2,2,0.2c0.8,0,1.5-0.1,2.3-0.3c0.7-0.2,1.4-0.6,2-1.1c0.6-0.5,1.1-1.1,1.5-1.9
			c0.4-0.8,0.5-1.8,0.5-2.9c0-1.3-0.2-2.5-0.6-3.5c-0.4-1-0.9-1.9-1.5-2.6c-0.6-0.8-1.3-1.4-2.1-2c-0.8-0.6-1.6-1.2-2.4-1.8
			c-0.8-0.6-1.5-1.1-2.3-1.6c-0.7-0.5-1.4-1.2-2-1.8c-1.3-1.6-1.9-3.3-1.9-5.2c0-0.1,0-0.3,0-0.7c0-0.4,0-0.8,0.1-1.3
			c0.1-0.5,0.3-1,0.5-1.6c0.2-0.6,0.6-1.1,1.1-1.6c1.1-1.2,2.7-1.8,4.8-1.8c2.1,0,3.7,0.6,4.7,1.8c0.4,0.5,0.8,1.1,0.9,1.7
			c0.2,0.6,0.3,1.2,0.4,1.8c0.1,0.6,0.1,1.1,0.1,1.5c0,0.4,0,0.6,0,0.6h-0.9c0-0.7,0-1.3,0-1.8c-0.1-0.5-0.2-1.1-0.3-1.6
			c-0.2-0.6-0.4-1.1-0.8-1.5c-0.4-0.5-1-0.9-1.6-1.1c-0.6-0.3-1.4-0.4-2.3-0.4c-1.8,0-3.2,0.5-4.1,1.5c-0.4,0.4-0.7,0.9-0.9,1.5
			c-0.2,0.5-0.4,1-0.4,1.5c-0.1,0.5-0.1,1-0.1,1.6c0,1,0.2,1.8,0.5,2.6c0.3,0.7,0.8,1.4,1.3,2.1c0.5,0.6,1.1,1.2,1.8,1.7
			c0.7,0.5,1.4,1.1,2.1,1.6c0.9,0.6,1.7,1.2,2.5,1.8c0.8,0.6,1.6,1.4,2.3,2.2c1.5,1.9,2.3,4.1,2.3,6.6c0,2.4-0.8,4.2-2.4,5.5
			c-1.3,1.1-2.9,1.6-4.8,1.6c-0.7,0-1.4-0.1-2.3-0.3C79.5,98.5,78.7,98.1,77.9,97.4z"/>
		<path d="M102.2,67.5h-7.3v-0.4v-0.4h15.4v0.4v0.4l0,0h-7.2v31.1h-0.5h-0.4V67.5z"/>
		<path d="M124.6,84.7c-0.3,0.1-0.7,0.1-1,0.1c-0.3,0-0.7,0-1.1,0h-4.1v13.7h-0.5h-0.4V67.1v-0.5h0.5h4.5c1.6,0,2.9,0.2,4,0.7
			c1.1,0.5,1.9,1.2,2.5,2.1c0.6,0.9,1,1.9,1.3,3c0.3,1.1,0.5,2.2,0.5,3.3c0,1.1-0.2,2.3-0.5,3.4c-0.3,1.1-0.7,2.1-1.3,2.9
			c-0.4,0.6-0.9,1.2-1.5,1.6c-0.6,0.4-1.3,0.7-2.1,0.9L124.6,84.7z M128.2,81.5c0.5-0.8,0.9-1.7,1.2-2.7c0.3-1,0.4-2.1,0.4-3.1
			c0-1-0.1-2.1-0.4-3.1c-0.3-1-0.7-1.9-1.2-2.7c-0.5-0.8-1.2-1.4-2.2-1.8c-0.9-0.4-2.1-0.6-3.5-0.6h-4.1V84h4.1
			c1.7,0,2.9-0.2,3.7-0.6C127.1,82.9,127.7,82.3,128.2,81.5z M125.5,84.6l6.1,13.9h-1l-6-13.8L125.5,84.6z"/>
		<path d="M151.5,97.7v0.4v0.4h-12.4v-0.4V67.1v-0.5h12.2v0.5v0.4H140V84h8.8v0.4v0.4H140v12.8H151.5z"/>
		<path d="M172,98.6h-1l-2-9.6h-7.7l-2.1,9.6h-1l6.5-32h0.7L172,98.6z M168.8,88l-3.6-19l-3.7,19H168.8z M165,66.6L165,66.6h0.1h0h0
			h0.1H165z"/>
		<path d="M179.3,68.9v29.7h-0.4h-0.5V67v0v-0.4h0.7l8.1,15.9l8.1-15.9h0.7V67v0v31.5h-0.5h-0.5V68.9L187.5,84h-0.6L179.3,68.9z
			 M179,66.6L179,66.6L179,66.6h-0.1h0h0h0h0H179z M195.5,66.6L195.5,66.6L195.5,66.6h0.1h0h0h0h0H195.5z"/>
		<g>
			<path d="M211.7,84.7c-0.3,0.1-0.7,0.1-1,0.1c-0.3,0-0.7,0-1.1,0h-4.1v13.7h-0.5h-0.4V67.1v-0.5h0.5h4.5c1.6,0,2.9,0.2,4,0.7
				c1.1,0.5,1.9,1.2,2.5,2.1c0.6,0.9,1,1.9,1.3,3c0.3,1.1,0.5,2.2,0.5,3.3c0,1.1-0.2,2.3-0.5,3.4c-0.3,1.1-0.7,2.1-1.3,2.9
				c-0.4,0.6-0.9,1.2-1.5,1.6c-0.6,0.4-1.3,0.7-2.1,0.9L211.7,84.7z M215.4,81.5c0.5-0.8,0.9-1.7,1.2-2.7c0.3-1,0.4-2.1,0.4-3.1
				c0-1-0.1-2.1-0.4-3.1c-0.3-1-0.7-1.9-1.2-2.7c-0.5-0.8-1.2-1.4-2.2-1.8c-0.9-0.4-2.1-0.6-3.5-0.6h-4.1V84h4.1
				c1.7,0,2.9-0.2,3.7-0.6C214.2,82.9,214.9,82.3,215.4,81.5z M212.6,84.6l6.1,13.9h-1l-6-13.8L212.6,84.6z"/>
			<path d="M206.2,99.3h-2.3V65.9h5.7c1.7,0,3.1,0.3,4.3,0.8c1.2,0.6,2.1,1.3,2.8,2.4c0.6,0.9,1.1,2,1.4,3.2
				c0.3,1.2,0.5,2.3,0.5,3.5c0,1.2-0.2,2.4-0.5,3.6c-0.3,1.2-0.8,2.2-1.4,3.1c-0.4,0.7-1,1.3-1.6,1.8c-0.4,0.4-1,0.6-1.6,0.8
				l6.2,14.2h-2.5l-6-13.7c-0.2,0-0.3,0-0.5,0c-0.3,0-0.7,0-1.1,0h-3.4V99.3z M206.2,83.3h3.4c1.6,0,2.7-0.2,3.4-0.6
				c0.7-0.4,1.2-0.9,1.7-1.6c0.5-0.7,0.8-1.6,1.1-2.5c0.3-0.9,0.4-1.9,0.4-2.9c0-1-0.1-1.9-0.4-2.9c-0.3-0.9-0.6-1.8-1.1-2.5
				c-0.4-0.6-1-1.2-1.9-1.5c-0.8-0.4-1.9-0.6-3.2-0.6h-3.4V83.3z"/>
		</g>
		<g>
			<path d="M239.1,91.7c0,0.1,0,0.3,0,0.7c0,0.4-0.1,0.8-0.2,1.4c-0.1,0.5-0.3,1.1-0.6,1.7c-0.2,0.6-0.6,1.2-1.1,1.7
				c-0.6,0.6-1.4,1-2.5,1.3c-1.1,0.3-2.1,0.5-3.1,0.5c-1,0-2-0.2-3.1-0.5c-1.1-0.3-1.9-0.8-2.4-1.3c-0.5-0.5-0.9-1.1-1.1-1.8
				c-0.2-0.6-0.4-1.3-0.5-1.8c-0.1-0.6-0.1-1.1-0.1-1.5c0-0.4,0-0.7,0-0.7v-18c0-1.2,0.2-2.2,0.5-3.1c0.3-0.9,0.9-1.7,1.6-2.4
				c0.3-0.3,0.7-0.5,1.1-0.7c0.4-0.2,0.9-0.4,1.3-0.5c0.5-0.1,0.9-0.2,1.4-0.3c0.5-0.1,0.9-0.1,1.3-0.1c0.4,0,0.8,0,1.3,0.1
				c0.5,0.1,1,0.2,1.5,0.3c0.5,0.1,0.9,0.3,1.4,0.5c0.4,0.2,0.8,0.4,1.1,0.7c1.5,1.3,2.2,3.2,2.2,5.6V91.7z M238.2,73.4
				c0-1-0.1-1.9-0.4-2.6c-0.3-0.7-0.6-1.3-1.1-1.8c-0.3-0.3-0.7-0.5-1.1-0.8c-0.4-0.2-0.9-0.4-1.3-0.5c-0.5-0.1-0.9-0.2-1.4-0.3
				c-0.5-0.1-0.9-0.1-1.2-0.1c-0.7,0-1.4,0.1-2.1,0.2c-0.7,0.2-1.4,0.5-2,0.9c-0.6,0.5-1.1,1.1-1.5,1.9c-0.4,0.8-0.6,1.9-0.6,3.1
				v18.1c0,0.7,0,1.4,0.1,1.9c0.1,0.5,0.2,1.1,0.4,1.7c0.2,0.6,0.5,1.1,1,1.6c0.5,0.5,1.2,0.9,2.1,1.1c0.9,0.2,1.8,0.4,2.7,0.4
				c0.4,0,0.9,0,1.4-0.1c0.5-0.1,0.9-0.2,1.4-0.3c0.5-0.1,0.9-0.3,1.3-0.5c0.4-0.2,0.7-0.4,0.9-0.7c0.4-0.5,0.8-1,1-1.5
				c0.2-0.6,0.4-1.1,0.4-1.6c0.1-0.5,0.1-1.1,0.1-1.7L238.2,73.4z"/>
			<path d="M231.7,99.7c-1.1,0-2.2-0.2-3.3-0.5c-1.2-0.3-2.1-0.9-2.7-1.5c-0.6-0.6-1-1.3-1.3-2c-0.3-0.7-0.4-1.3-0.5-2
				c-0.1-0.6-0.1-1.1-0.1-1.6V73.4c0-1.2,0.2-2.4,0.5-3.4c0.4-1,1-1.9,1.8-2.6c0.3-0.3,0.7-0.6,1.2-0.8c0.5-0.2,1-0.4,1.5-0.5
				c0.5-0.1,1-0.2,1.5-0.3c0.5-0.1,1-0.1,1.4-0.1c0.4,0,0.9,0,1.4,0.1c0.5,0.1,1,0.2,1.6,0.3c0.5,0.1,1,0.3,1.5,0.5
				c0.5,0.2,0.9,0.5,1.3,0.8c1.6,1.4,2.5,3.5,2.5,6.1v19c0,0.4-0.1,0.9-0.2,1.5c-0.1,0.6-0.3,1.2-0.6,1.9c-0.3,0.7-0.7,1.3-1.3,1.9
				c-0.7,0.7-1.6,1.2-2.8,1.5C233.8,99.5,232.7,99.7,231.7,99.7z M231.7,67.8c-0.6,0-1.3,0.1-2,0.2c-0.6,0.1-1.2,0.4-1.8,0.8
				c-0.5,0.4-1,0.9-1.3,1.6c-0.3,0.7-0.5,1.7-0.5,2.8v18.1c0,0.7,0,1.3,0.1,1.8c0.1,0.5,0.2,1,0.4,1.6c0.2,0.5,0.4,0.9,0.8,1.3
				c0.4,0.4,1,0.7,1.8,0.9c0.9,0.2,1.7,0.4,2.5,0.4c0.4,0,0.8,0,1.3-0.1c0.4-0.1,0.9-0.1,1.3-0.3c0.4-0.1,0.8-0.3,1.1-0.4
				c0.3-0.2,0.5-0.3,0.7-0.5c0.4-0.4,0.7-0.9,0.8-1.3c0.2-0.5,0.3-1,0.4-1.4c0.1-0.4,0.1-1,0.1-1.6l0-18.3c0-0.9-0.1-1.7-0.4-2.4
				c-0.2-0.6-0.6-1.2-0.9-1.6c-0.2-0.2-0.5-0.4-0.9-0.6c-0.4-0.2-0.8-0.4-1.2-0.5c-0.4-0.1-0.8-0.2-1.3-0.3
				C232.4,67.9,232,67.8,231.7,67.8z"/>
		</g>
		<g>
			<path d="M259.3,91.7c0,0.1,0,0.3,0,0.7c0,0.4-0.1,0.8-0.2,1.4c-0.1,0.5-0.3,1.1-0.6,1.7c-0.2,0.6-0.6,1.2-1.1,1.7
				c-0.6,0.6-1.4,1-2.5,1.3c-1.1,0.3-2.1,0.5-3.1,0.5c-1,0-2-0.2-3.1-0.5c-1.1-0.3-1.9-0.8-2.4-1.3c-0.5-0.5-0.9-1.1-1.1-1.8
				c-0.2-0.6-0.4-1.3-0.5-1.8c-0.1-0.6-0.1-1.1-0.1-1.5c0-0.4,0-0.7,0-0.7v-18c0-1.2,0.2-2.2,0.5-3.1c0.3-0.9,0.9-1.7,1.6-2.4
				c0.3-0.3,0.7-0.5,1.1-0.7c0.4-0.2,0.9-0.4,1.3-0.5c0.5-0.1,0.9-0.2,1.4-0.3c0.5-0.1,0.9-0.1,1.3-0.1c0.4,0,0.8,0,1.3,0.1
				c0.5,0.1,1,0.2,1.5,0.3c0.5,0.1,0.9,0.3,1.4,0.5c0.4,0.2,0.8,0.4,1.1,0.7c1.5,1.3,2.2,3.2,2.2,5.6V91.7z M258.3,73.4
				c0-1-0.1-1.9-0.4-2.6c-0.3-0.7-0.6-1.3-1.1-1.8c-0.3-0.3-0.7-0.5-1.1-0.8c-0.4-0.2-0.9-0.4-1.3-0.5c-0.5-0.1-0.9-0.2-1.4-0.3
				c-0.5-0.1-0.9-0.1-1.2-0.1c-0.7,0-1.4,0.1-2.1,0.2c-0.7,0.2-1.4,0.5-2,0.9c-0.6,0.5-1.1,1.1-1.5,1.9c-0.4,0.8-0.6,1.9-0.6,3.1
				v18.1c0,0.7,0,1.4,0.1,1.9c0.1,0.5,0.2,1.1,0.4,1.7c0.2,0.6,0.5,1.1,1,1.6c0.5,0.5,1.2,0.9,2.1,1.1c0.9,0.2,1.8,0.4,2.7,0.4
				c0.4,0,0.9,0,1.4-0.1c0.5-0.1,0.9-0.2,1.4-0.3c0.5-0.1,0.9-0.3,1.3-0.5c0.4-0.2,0.7-0.4,0.9-0.7c0.4-0.5,0.8-1,1-1.5
				c0.2-0.6,0.4-1.1,0.4-1.6c0.1-0.5,0.1-1.1,0.1-1.7L258.3,73.4z"/>
			<path d="M251.8,99.7c-1.1,0-2.2-0.2-3.3-0.5c-1.2-0.3-2.1-0.9-2.7-1.5c-0.6-0.6-1-1.3-1.3-2c-0.3-0.7-0.4-1.3-0.5-2
				c-0.1-0.6-0.1-1.1-0.1-1.6V73.4c0-1.2,0.2-2.4,0.5-3.4c0.4-1,1-1.9,1.8-2.6c0.3-0.3,0.7-0.6,1.2-0.8c0.5-0.2,1-0.4,1.5-0.5
				c0.5-0.1,1-0.2,1.5-0.3c0.5-0.1,1-0.1,1.4-0.1c0.4,0,0.9,0,1.4,0.1c0.5,0.1,1,0.2,1.6,0.3c0.5,0.1,1,0.3,1.5,0.5
				c0.5,0.2,0.9,0.5,1.3,0.8c1.6,1.4,2.5,3.5,2.5,6.1v19c0,0.4-0.1,0.9-0.2,1.5c-0.1,0.6-0.3,1.2-0.6,1.9c-0.3,0.7-0.7,1.3-1.3,1.9
				c-0.7,0.7-1.6,1.2-2.8,1.5C254,99.5,252.9,99.7,251.8,99.7z M251.8,67.8c-0.6,0-1.3,0.1-2,0.2c-0.6,0.1-1.2,0.4-1.8,0.8
				c-0.5,0.4-1,0.9-1.3,1.6c-0.3,0.7-0.5,1.7-0.5,2.8v18.1c0,0.7,0,1.3,0.1,1.8c0.1,0.5,0.2,1,0.4,1.6c0.2,0.5,0.4,0.9,0.8,1.3
				c0.4,0.4,1,0.7,1.8,0.9c0.9,0.2,1.7,0.4,2.5,0.4c0.4,0,0.8,0,1.3-0.1c0.4-0.1,0.9-0.1,1.3-0.3c0.4-0.1,0.8-0.3,1.1-0.4
				c0.3-0.2,0.5-0.3,0.7-0.5c0.4-0.4,0.7-0.9,0.8-1.3c0.2-0.5,0.3-1,0.4-1.4c0.1-0.4,0.1-1,0.1-1.6l0-18.3c0-0.9-0.1-1.7-0.4-2.4
				c-0.2-0.6-0.6-1.2-0.9-1.6c-0.2-0.2-0.5-0.4-0.9-0.6c-0.4-0.2-0.8-0.4-1.2-0.5c-0.4-0.1-0.8-0.2-1.3-0.3
				C252.5,67.9,252.1,67.8,251.8,67.8z"/>
		</g>
		<g>
			<path d="M271.3,67.5H264v-0.4v-0.4h15.4v0.4v0.4l0,0h-7.2v31.1h-0.5h-0.4V67.5z"/>
			<polygon points="272.9,99.3 270.6,99.3 270.6,68.1 263.3,68.1 263.3,65.9 280.1,65.9 280.1,66.8 280.1,67.8 280.1,68.1 
				279.7,68.1 278.7,68.1 272.9,68.1 			"/>
		</g>
	</g>
	<g>
		<path fill="#14E3FF" d="M54.9,60.3c-6.7-2.5-14,0-18,5.5c-6.8-0.6-13.5,3.3-16,10c-3,8,1.1,16.9,9.1,19.9c1.3,0.5,2.6,0.8,3.9,0.9
			c1.6,3.7,4.7,6.7,8.7,8.2c8,3,16.9-1.1,19.9-9.1c1.5-4,1.2-8.3-0.5-11.9c0.8-1.1,1.4-2.3,1.9-3.6C67,72.2,62.9,63.3,54.9,60.3z"/>
		<path fill="#1D1D1B" d="M57.1,83.1c-0.2-0.8-1-1.2-1.8-1c-0.4,0.1-0.8,0.4-0.9,0.8l-4.5-0.4c0-0.1,0-0.3,0-0.4
			c0-1.7-0.8-3.2-1.9-4.2l2.1-2.9l2.9,2.1c0,0,0,0.1,0,0.1c-0.2,0.8,0.2,1.6,1,1.8c0.8,0.2,1.6-0.2,1.8-1c0.2-0.7-0.2-1.4-0.8-1.7
			l0.8-7.9c0.5-0.1,1-0.5,1.1-1c0.2-0.8-0.2-1.6-1-1.8c-0.8-0.2-1.6,0.2-1.8,1C54,66.8,54,67,54,67.1l-7.3,3.2
			c-0.2-0.2-0.4-0.4-0.7-0.5c-0.8-0.2-1.6,0.2-1.8,1c-0.2,0.8,0.2,1.6,1,1.8c0.5,0.1,0.9,0,1.3-0.3l2.9,2.2l-2.1,2.9
			c-0.9-0.6-1.9-0.9-3-0.9c-0.7,0-1.4,0.1-2.1,0.4l-1.8-3.8c0.4-0.4,0.6-0.9,0.5-1.5c-0.2-0.8-1-1.2-1.8-1c-0.8,0.2-1.2,1-1,1.8
			c0.2,0.7,0.9,1.2,1.6,1l1.8,3.9c-1.5,0.9-2.6,2.4-2.8,4.2l-3.6-0.3l0.4-3.5c0,0,0.1,0,0.1,0c0.8-0.2,1.2-1,1-1.8
			c-0.2-0.8-1-1.2-1.8-1c-0.7,0.2-1.1,0.9-1.1,1.6l-7.2,3.3c-0.3-0.4-0.9-0.6-1.4-0.4c-0.8,0.2-1.2,1-1,1.8c0.2,0.8,1,1.2,1.8,1
			c0.2-0.1,0.4-0.1,0.5-0.3l6.5,4.6c-0.1,0.3-0.1,0.6,0,0.9c0.2,0.8,1,1.2,1.8,1c0.8-0.2,1.2-1,1-1.8c-0.1-0.5-0.5-0.8-0.9-1
			l0.4-3.6l3.7,0.3c0,1.7,0.8,3.1,2,4.1L38.2,90c-0.3-0.1-0.6-0.1-0.9-0.1c-0.8,0.2-1.2,1-1,1.8c0.2,0.8,1,1.2,1.8,1
			c0.8-0.2,1.2-1,1-1.8c-0.1-0.2-0.1-0.4-0.3-0.5l2.7-3.7c0.8,0.5,1.8,0.8,2.9,0.8c0.6,0,1.3-0.1,1.8-0.3l1.6,3.6l-3.3,1.5
			c0,0-0.1-0.1-0.1-0.1c-0.6-0.6-1.5-0.6-2.1,0c-0.6,0.6-0.6,1.5,0,2c0.5,0.5,1.3,0.5,1.9,0.1l6.5,4.6c-0.2,0.5-0.1,1.1,0.3,1.5
			c0.6,0.6,1.5,0.6,2.1,0c0.6-0.6,0.6-1.5,0-2c-0.1-0.1-0.3-0.2-0.5-0.3l0.8-7.9c0.3,0,0.6-0.2,0.8-0.4c0.6-0.6,0.6-1.5,0-2
			c-0.6-0.6-1.5-0.6-2.1,0c-0.3,0.3-0.5,0.8-0.4,1.3l-3.3,1.5L46.9,87c1.4-0.7,2.5-2.1,2.9-3.7l4.5,0.4c0,0.1,0,0.2,0,0.2
			c0.2,0.8,1,1.2,1.8,1C56.9,84.7,57.3,83.9,57.1,83.1z M54.9,68.3C54.9,68.3,54.9,68.3,54.9,68.3l-0.8,7.9c-0.3,0-0.5,0.1-0.8,0.3
			l-2.9-2.1L54.9,68.3z M46.9,71.8c0,0,0-0.1,0-0.1c0.1-0.2,0.1-0.4,0-0.6l7.3-3.2c0,0,0,0,0,0l-4.4,6.1L46.9,71.8z M34.1,85.5
			c0,0-0.1,0-0.1,0c-0.2,0.1-0.4,0.2-0.5,0.3l-6.4-4.6c0,0,0,0,0,0l7.5,0.7L34.1,85.5z M34.5,81.1L27,80.4c0,0,0,0,0,0l7.2-3.3
			c0.2,0.2,0.4,0.4,0.7,0.5L34.5,81.1z M52.2,89.7c0,0,0.1,0.1,0.1,0.1c0.2,0.1,0.3,0.3,0.5,0.3L52,98c0,0,0,0,0,0l-3.1-6.8
			L52.2,89.7z M51.3,98.3C51.3,98.3,51.3,98.3,51.3,98.3l-6.5-4.5c0.1-0.3,0.2-0.5,0.1-0.8l3.2-1.5L51.3,98.3z M45,83.3l-2.4,1.4V82
			v-2.8l2.4,1.4l2.4,1.4L45,83.3z"/>
	</g>
</g>
</svg>
