<svg xmlns="http://www.w3.org/2000/svg" viewBox="0 0 1254 502">
<style>.logo-mark { fill: #1d2753; } .logo-text { fill: #1d2753; }</style>
<path class="logo-mark" d="M1 501V1h428.87v65.46h-44.85v-20.1H46.36v409.28h338.66v-20.1h45.36V501H1z"/><path class="logo-text" d="m1199.97 247.39-.52-1.55 2.06-1.03a67 67 0 0 0 45.36-65.98c0-31.44-13.4-55.15-42.27-68.56-13.92-6.19-28.35-8.25-43.3-8.25h-129.38l-8.76.52v296.91h146.91c5.67 0 11.86-.52 17.53-1.55a73.7 73.7 0 0 0 64.43-69.07 75.25 75.25 0 0 0-52.06-81.44Zm-131.44-104.12 1.55-1.03c29.38-.52 59.28-1.55 88.66 0 31.44 1.03 48.45 26.29 40.72 55.67a38.67 38.67 0 0 1-37.11 29.9c-31.44 1.55-62.37.52-94.33.52l.52-85.05Zm95.88 216.49c-31.44 2.06-63.92.52-96.39.52V267.5h88.14c24.23.52 41.24 11.34 47.42 30.41 10.31 30.93-6.7 59.79-39.18 61.86ZM256.67 280.9l3.61-1.03a83.5 83.5 0 0 0 70.1-82.47 85.55 85.55 0 0 0-62.37-90.72 133.7 133.7 0 0 0-35.05-4.64H110.28v296.39h44.33V284h46.91c6.19 0 9.79 2.06 12.89 7.22l62.89 101.55c1.55 2.58 3.61 6.19 5.67 6.19l50 .52-76.29-118.56Zm-102.58-35.05-.52-102.58 1.55-1.03c26.8-.52 53.09-1.55 79.9 0l1.62.06a50 50 0 0 1 47.35 52.52c0 28.87-20.1 49.48-51.55 51.03-25.77 1.03-51.55 0-78.35 0Zm757.22-143.3h44.85l.52 8.25v172.68a170.9 170.9 0 0 1-5.67 42.78 97.41 97.41 0 0 1-71.13 72.16 168.58 168.58 0 0 1-95.88 0 104.13 104.13 0 0 1-77.32-102.58c-1.55-46.39-.52-92.78-.52-139.69v-54.12h45.36v177.32c0 10.82 1.03 22.16 4.12 32.47 9.79 36.08 42.78 56.19 84.02 52.06 45.88-4.12 71.65-32.99 72.16-80.93V111.82l-.52-9.28ZM503.06 227.29h91.75V103.06h44.85v296.39h-44.33V267.49h-92.27v-40.2zM386.05 102.55h43.3v296.39h-43.3z"/></svg>